<svg width="55" height="28" viewBox="0 0 55 28" fill="none" xmlns="http://www.w3.org/2000/svg">
<path d="M45.1816 0C46.9754 1.18573e-06 48.4979 0.271137 50.4004 0.976562V8.95312C49.2589 8.19346 48.0083 7.70511 46.6494 7.70508C43.9315 7.70508 42.1924 9.55079 42.1924 12.4268V28H33.2129V12.0469C33.2129 9.44222 31.6362 7.70508 29.2988 7.70508C26.9071 7.70512 25.2764 9.44226 25.2764 12.0469V28H16.8506V12.0469C16.8506 9.49649 15.2199 7.70508 12.8281 7.70508C10.4366 7.70525 8.91504 9.44235 8.91504 12.0469V28H0V11.8291C0.000163402 4.82943 4.89215 0.000184001 12.0127 0C16.1439 0 19.2427 1.68224 21.0908 4.88379C22.8846 1.7365 25.929 0 30.1689 0C33.0817 5.51842e-05 35.6239 0.812896 37.6074 2.26074C39.5717 0.791376 42.137 0 45.1816 0Z" fill="black"/>
<ellipse cx="50.3994" cy="24.2667" rx="3.73333" ry="3.73333" fill="#FF5C35"/>
</svg>
